<mxfile host="app.diagrams.net" modified="2021-10-21T08:04:04.301Z" agent="5.0 (Macintosh; Intel Mac OS X 10_15_7) AppleWebKit/537.36 (KHTML, like Gecko) Chrome/94.0.4606.81 Safari/537.36" etag="VKTJjrk278i807PXogjA" version="15.5.2" type="github">
  <diagram id="C5RBs43oDa-KdzZeNtuy" name="Page-1">
    <mxGraphModel dx="1198" dy="621" grid="1" gridSize="10" guides="1" tooltips="1" connect="1" arrows="1" fold="1" page="1" pageScale="1" pageWidth="827" pageHeight="1169" math="0" shadow="0">
      <root>
        <mxCell id="WIyWlLk6GJQsqaUBKTNV-0" />
        <mxCell id="WIyWlLk6GJQsqaUBKTNV-1" parent="WIyWlLk6GJQsqaUBKTNV-0" />
        <mxCell id="zHJnFDCS_xAZhOyIZzer-20" value="" style="edgeStyle=orthogonalEdgeStyle;rounded=0;orthogonalLoop=1;jettySize=auto;html=1;exitX=0.5;exitY=0;exitDx=0;exitDy=0;" edge="1" parent="WIyWlLk6GJQsqaUBKTNV-1" source="zHJnFDCS_xAZhOyIZzer-18" target="zHJnFDCS_xAZhOyIZzer-19">
          <mxGeometry relative="1" as="geometry" />
        </mxCell>
        <mxCell id="zHJnFDCS_xAZhOyIZzer-21" value="是" style="edgeLabel;html=1;align=center;verticalAlign=middle;resizable=0;points=[];" vertex="1" connectable="0" parent="zHJnFDCS_xAZhOyIZzer-20">
          <mxGeometry x="-0.1625" y="3" relative="1" as="geometry">
            <mxPoint y="-12" as="offset" />
          </mxGeometry>
        </mxCell>
        <mxCell id="zHJnFDCS_xAZhOyIZzer-23" value="" style="edgeStyle=orthogonalEdgeStyle;rounded=0;orthogonalLoop=1;jettySize=auto;html=1;" edge="1" parent="WIyWlLk6GJQsqaUBKTNV-1" source="zHJnFDCS_xAZhOyIZzer-18" target="zHJnFDCS_xAZhOyIZzer-22">
          <mxGeometry relative="1" as="geometry">
            <Array as="points">
              <mxPoint x="315" y="530" />
            </Array>
          </mxGeometry>
        </mxCell>
        <mxCell id="zHJnFDCS_xAZhOyIZzer-37" value="否" style="edgeLabel;html=1;align=center;verticalAlign=middle;resizable=0;points=[];" vertex="1" connectable="0" parent="zHJnFDCS_xAZhOyIZzer-23">
          <mxGeometry x="-0.5897" y="1" relative="1" as="geometry">
            <mxPoint x="24" as="offset" />
          </mxGeometry>
        </mxCell>
        <mxCell id="zHJnFDCS_xAZhOyIZzer-18" value="判断人员是否&lt;br&gt;已被删除？" style="rhombus;whiteSpace=wrap;html=1;" vertex="1" parent="WIyWlLk6GJQsqaUBKTNV-1">
          <mxGeometry x="270" y="390" width="90" height="80" as="geometry" />
        </mxCell>
        <mxCell id="zHJnFDCS_xAZhOyIZzer-19" value="提示报错：&lt;br&gt;当前员工已经删除，不支持审核" style="whiteSpace=wrap;html=1;" vertex="1" parent="WIyWlLk6GJQsqaUBKTNV-1">
          <mxGeometry x="450" y="340" width="200" height="50" as="geometry" />
        </mxCell>
        <mxCell id="zHJnFDCS_xAZhOyIZzer-25" value="" style="edgeStyle=orthogonalEdgeStyle;rounded=0;orthogonalLoop=1;jettySize=auto;html=1;exitX=1;exitY=0.5;exitDx=0;exitDy=0;" edge="1" parent="WIyWlLk6GJQsqaUBKTNV-1" source="zHJnFDCS_xAZhOyIZzer-26" target="zHJnFDCS_xAZhOyIZzer-24">
          <mxGeometry relative="1" as="geometry" />
        </mxCell>
        <mxCell id="zHJnFDCS_xAZhOyIZzer-28" value="是" style="edgeLabel;html=1;align=center;verticalAlign=middle;resizable=0;points=[];" vertex="1" connectable="0" parent="zHJnFDCS_xAZhOyIZzer-25">
          <mxGeometry x="-0.2771" y="4" relative="1" as="geometry">
            <mxPoint as="offset" />
          </mxGeometry>
        </mxCell>
        <mxCell id="zHJnFDCS_xAZhOyIZzer-27" style="edgeStyle=orthogonalEdgeStyle;rounded=0;orthogonalLoop=1;jettySize=auto;html=1;exitX=1;exitY=0.5;exitDx=0;exitDy=0;" edge="1" parent="WIyWlLk6GJQsqaUBKTNV-1" source="zHJnFDCS_xAZhOyIZzer-22" target="zHJnFDCS_xAZhOyIZzer-26">
          <mxGeometry relative="1" as="geometry" />
        </mxCell>
        <mxCell id="zHJnFDCS_xAZhOyIZzer-22" value="更新表状态" style="whiteSpace=wrap;html=1;" vertex="1" parent="WIyWlLk6GJQsqaUBKTNV-1">
          <mxGeometry x="450" y="500" width="120" height="60" as="geometry" />
        </mxCell>
        <mxCell id="zHJnFDCS_xAZhOyIZzer-32" style="edgeStyle=orthogonalEdgeStyle;rounded=0;orthogonalLoop=1;jettySize=auto;html=1;exitX=0.5;exitY=1;exitDx=0;exitDy=0;entryX=1;entryY=0.5;entryDx=0;entryDy=0;" edge="1" parent="WIyWlLk6GJQsqaUBKTNV-1" source="zHJnFDCS_xAZhOyIZzer-24" target="zHJnFDCS_xAZhOyIZzer-29">
          <mxGeometry relative="1" as="geometry" />
        </mxCell>
        <mxCell id="zHJnFDCS_xAZhOyIZzer-24" value="调用客户接口通知审核通过" style="whiteSpace=wrap;html=1;" vertex="1" parent="WIyWlLk6GJQsqaUBKTNV-1">
          <mxGeometry x="813" y="500" width="120" height="60" as="geometry" />
        </mxCell>
        <mxCell id="zHJnFDCS_xAZhOyIZzer-30" value="" style="edgeStyle=orthogonalEdgeStyle;rounded=0;orthogonalLoop=1;jettySize=auto;html=1;" edge="1" parent="WIyWlLk6GJQsqaUBKTNV-1" source="zHJnFDCS_xAZhOyIZzer-26" target="zHJnFDCS_xAZhOyIZzer-29">
          <mxGeometry relative="1" as="geometry" />
        </mxCell>
        <mxCell id="zHJnFDCS_xAZhOyIZzer-31" value="否" style="edgeLabel;html=1;align=center;verticalAlign=middle;resizable=0;points=[];" vertex="1" connectable="0" parent="zHJnFDCS_xAZhOyIZzer-30">
          <mxGeometry x="-0.3333" relative="1" as="geometry">
            <mxPoint x="10" y="10" as="offset" />
          </mxGeometry>
        </mxCell>
        <mxCell id="zHJnFDCS_xAZhOyIZzer-26" value="更新是否&lt;br&gt;通过？" style="rhombus;whiteSpace=wrap;html=1;" vertex="1" parent="WIyWlLk6GJQsqaUBKTNV-1">
          <mxGeometry x="650" y="490" width="80" height="80" as="geometry" />
        </mxCell>
        <mxCell id="zHJnFDCS_xAZhOyIZzer-29" value="调用钉钉接口清除代办" style="whiteSpace=wrap;html=1;" vertex="1" parent="WIyWlLk6GJQsqaUBKTNV-1">
          <mxGeometry x="630" y="660" width="120" height="60" as="geometry" />
        </mxCell>
        <mxCell id="zHJnFDCS_xAZhOyIZzer-34" style="edgeStyle=orthogonalEdgeStyle;rounded=0;orthogonalLoop=1;jettySize=auto;html=1;exitX=1;exitY=0.5;exitDx=0;exitDy=0;entryX=0;entryY=0.531;entryDx=0;entryDy=0;entryPerimeter=0;" edge="1" parent="WIyWlLk6GJQsqaUBKTNV-1" source="zHJnFDCS_xAZhOyIZzer-33" target="zHJnFDCS_xAZhOyIZzer-42">
          <mxGeometry relative="1" as="geometry">
            <mxPoint x="280" y="170" as="targetPoint" />
          </mxGeometry>
        </mxCell>
        <mxCell id="zHJnFDCS_xAZhOyIZzer-33" value="前端发起请求" style="rounded=0;whiteSpace=wrap;html=1;" vertex="1" parent="WIyWlLk6GJQsqaUBKTNV-1">
          <mxGeometry x="60" y="125" width="150" height="80" as="geometry" />
        </mxCell>
        <mxCell id="zHJnFDCS_xAZhOyIZzer-36" style="edgeStyle=orthogonalEdgeStyle;rounded=0;orthogonalLoop=1;jettySize=auto;html=1;exitX=1;exitY=0.5;exitDx=0;exitDy=0;" edge="1" parent="WIyWlLk6GJQsqaUBKTNV-1" source="zHJnFDCS_xAZhOyIZzer-35" target="zHJnFDCS_xAZhOyIZzer-18">
          <mxGeometry relative="1" as="geometry" />
        </mxCell>
        <mxCell id="zHJnFDCS_xAZhOyIZzer-35" value="前端发起请求" style="rounded=0;whiteSpace=wrap;html=1;" vertex="1" parent="WIyWlLk6GJQsqaUBKTNV-1">
          <mxGeometry x="60" y="400" width="120" height="60" as="geometry" />
        </mxCell>
        <mxCell id="zHJnFDCS_xAZhOyIZzer-44" value="" style="edgeStyle=orthogonalEdgeStyle;rounded=0;orthogonalLoop=1;jettySize=auto;html=1;" edge="1" parent="WIyWlLk6GJQsqaUBKTNV-1" source="zHJnFDCS_xAZhOyIZzer-42" target="zHJnFDCS_xAZhOyIZzer-43">
          <mxGeometry relative="1" as="geometry" />
        </mxCell>
        <mxCell id="zHJnFDCS_xAZhOyIZzer-42" value="查询当前审批人所在的部门、岗位与职级" style="rounded=0;whiteSpace=wrap;html=1;" vertex="1" parent="WIyWlLk6GJQsqaUBKTNV-1">
          <mxGeometry x="300" y="122.5" width="160" height="80" as="geometry" />
        </mxCell>
        <mxCell id="zHJnFDCS_xAZhOyIZzer-46" value="" style="edgeStyle=orthogonalEdgeStyle;rounded=0;orthogonalLoop=1;jettySize=auto;html=1;" edge="1" parent="WIyWlLk6GJQsqaUBKTNV-1" source="zHJnFDCS_xAZhOyIZzer-43" target="zHJnFDCS_xAZhOyIZzer-45">
          <mxGeometry relative="1" as="geometry" />
        </mxCell>
        <mxCell id="zHJnFDCS_xAZhOyIZzer-43" value="查询当前部门、职级下配置的岗位、职级，且职级小于等于当前职级" style="whiteSpace=wrap;html=1;rounded=0;" vertex="1" parent="WIyWlLk6GJQsqaUBKTNV-1">
          <mxGeometry x="550" y="122.5" width="170" height="80" as="geometry" />
        </mxCell>
        <mxCell id="zHJnFDCS_xAZhOyIZzer-48" value="" style="edgeStyle=orthogonalEdgeStyle;rounded=0;orthogonalLoop=1;jettySize=auto;html=1;" edge="1" parent="WIyWlLk6GJQsqaUBKTNV-1" source="zHJnFDCS_xAZhOyIZzer-45" target="zHJnFDCS_xAZhOyIZzer-47">
          <mxGeometry relative="1" as="geometry" />
        </mxCell>
        <mxCell id="zHJnFDCS_xAZhOyIZzer-45" value="查询在指定部门、岗位下的所有员工信息（包含被删除的员工）" style="whiteSpace=wrap;html=1;rounded=0;" vertex="1" parent="WIyWlLk6GJQsqaUBKTNV-1">
          <mxGeometry x="820" y="122.5" width="170" height="80" as="geometry" />
        </mxCell>
        <mxCell id="zHJnFDCS_xAZhOyIZzer-47" value="分页查询员工申请信息" style="whiteSpace=wrap;html=1;rounded=0;" vertex="1" parent="WIyWlLk6GJQsqaUBKTNV-1">
          <mxGeometry x="1100" y="120" width="175" height="85" as="geometry" />
        </mxCell>
        <mxCell id="zHJnFDCS_xAZhOyIZzer-59" value="" style="edgeStyle=orthogonalEdgeStyle;rounded=0;orthogonalLoop=1;jettySize=auto;html=1;" edge="1" parent="WIyWlLk6GJQsqaUBKTNV-1" source="zHJnFDCS_xAZhOyIZzer-57" target="zHJnFDCS_xAZhOyIZzer-58">
          <mxGeometry relative="1" as="geometry" />
        </mxCell>
        <mxCell id="zHJnFDCS_xAZhOyIZzer-57" value="发送消息" style="rounded=0;whiteSpace=wrap;html=1;align=center;" vertex="1" parent="WIyWlLk6GJQsqaUBKTNV-1">
          <mxGeometry x="160" y="880" width="120" height="60" as="geometry" />
        </mxCell>
        <mxCell id="zHJnFDCS_xAZhOyIZzer-61" value="" style="edgeStyle=orthogonalEdgeStyle;rounded=0;orthogonalLoop=1;jettySize=auto;html=1;" edge="1" parent="WIyWlLk6GJQsqaUBKTNV-1" source="zHJnFDCS_xAZhOyIZzer-58" target="zHJnFDCS_xAZhOyIZzer-60">
          <mxGeometry relative="1" as="geometry" />
        </mxCell>
        <mxCell id="zHJnFDCS_xAZhOyIZzer-58" value="选择指定模板" style="whiteSpace=wrap;html=1;rounded=0;" vertex="1" parent="WIyWlLk6GJQsqaUBKTNV-1">
          <mxGeometry x="360" y="880" width="120" height="60" as="geometry" />
        </mxCell>
        <mxCell id="zHJnFDCS_xAZhOyIZzer-63" value="" style="edgeStyle=orthogonalEdgeStyle;rounded=0;orthogonalLoop=1;jettySize=auto;html=1;" edge="1" parent="WIyWlLk6GJQsqaUBKTNV-1" source="zHJnFDCS_xAZhOyIZzer-60" target="zHJnFDCS_xAZhOyIZzer-62">
          <mxGeometry relative="1" as="geometry" />
        </mxCell>
        <mxCell id="zHJnFDCS_xAZhOyIZzer-60" value="按模版填写数据" style="whiteSpace=wrap;html=1;rounded=0;" vertex="1" parent="WIyWlLk6GJQsqaUBKTNV-1">
          <mxGeometry x="560" y="880" width="120" height="60" as="geometry" />
        </mxCell>
        <mxCell id="zHJnFDCS_xAZhOyIZzer-65" value="" style="edgeStyle=orthogonalEdgeStyle;rounded=0;orthogonalLoop=1;jettySize=auto;html=1;" edge="1" parent="WIyWlLk6GJQsqaUBKTNV-1" source="zHJnFDCS_xAZhOyIZzer-62" target="zHJnFDCS_xAZhOyIZzer-64">
          <mxGeometry relative="1" as="geometry" />
        </mxCell>
        <mxCell id="zHJnFDCS_xAZhOyIZzer-62" value="获取token&lt;br&gt;放入redis缓存" style="whiteSpace=wrap;html=1;rounded=0;" vertex="1" parent="WIyWlLk6GJQsqaUBKTNV-1">
          <mxGeometry x="760" y="880" width="121" height="60" as="geometry" />
        </mxCell>
        <mxCell id="zHJnFDCS_xAZhOyIZzer-67" value="" style="edgeStyle=orthogonalEdgeStyle;rounded=0;orthogonalLoop=1;jettySize=auto;html=1;" edge="1" parent="WIyWlLk6GJQsqaUBKTNV-1" source="zHJnFDCS_xAZhOyIZzer-64" target="zHJnFDCS_xAZhOyIZzer-66">
          <mxGeometry relative="1" as="geometry" />
        </mxCell>
        <mxCell id="zHJnFDCS_xAZhOyIZzer-64" value="调用钉钉机器人接口" style="whiteSpace=wrap;html=1;rounded=0;" vertex="1" parent="WIyWlLk6GJQsqaUBKTNV-1">
          <mxGeometry x="960" y="880" width="120" height="60" as="geometry" />
        </mxCell>
        <mxCell id="zHJnFDCS_xAZhOyIZzer-81" value="" style="edgeStyle=orthogonalEdgeStyle;rounded=0;orthogonalLoop=1;jettySize=auto;html=1;" edge="1" parent="WIyWlLk6GJQsqaUBKTNV-1" source="zHJnFDCS_xAZhOyIZzer-66" target="zHJnFDCS_xAZhOyIZzer-80">
          <mxGeometry relative="1" as="geometry" />
        </mxCell>
        <mxCell id="zHJnFDCS_xAZhOyIZzer-66" value="记录发送机器人信息" style="whiteSpace=wrap;html=1;rounded=0;" vertex="1" parent="WIyWlLk6GJQsqaUBKTNV-1">
          <mxGeometry x="1160" y="880" width="120" height="60" as="geometry" />
        </mxCell>
        <mxCell id="zHJnFDCS_xAZhOyIZzer-70" value="" style="edgeStyle=orthogonalEdgeStyle;rounded=0;orthogonalLoop=1;jettySize=auto;html=1;" edge="1" parent="WIyWlLk6GJQsqaUBKTNV-1" source="zHJnFDCS_xAZhOyIZzer-68" target="zHJnFDCS_xAZhOyIZzer-69">
          <mxGeometry relative="1" as="geometry" />
        </mxCell>
        <mxCell id="zHJnFDCS_xAZhOyIZzer-68" value="审批结束" style="rounded=0;whiteSpace=wrap;html=1;align=center;" vertex="1" parent="WIyWlLk6GJQsqaUBKTNV-1">
          <mxGeometry x="160" y="1020" width="120" height="60" as="geometry" />
        </mxCell>
        <mxCell id="zHJnFDCS_xAZhOyIZzer-72" value="" style="edgeStyle=orthogonalEdgeStyle;rounded=0;orthogonalLoop=1;jettySize=auto;html=1;" edge="1" parent="WIyWlLk6GJQsqaUBKTNV-1" source="zHJnFDCS_xAZhOyIZzer-69" target="zHJnFDCS_xAZhOyIZzer-71">
          <mxGeometry relative="1" as="geometry" />
        </mxCell>
        <mxCell id="zHJnFDCS_xAZhOyIZzer-69" value="选择指定模版" style="whiteSpace=wrap;html=1;rounded=0;" vertex="1" parent="WIyWlLk6GJQsqaUBKTNV-1">
          <mxGeometry x="360" y="1020" width="120" height="60" as="geometry" />
        </mxCell>
        <mxCell id="zHJnFDCS_xAZhOyIZzer-74" value="" style="edgeStyle=orthogonalEdgeStyle;rounded=0;orthogonalLoop=1;jettySize=auto;html=1;" edge="1" parent="WIyWlLk6GJQsqaUBKTNV-1" source="zHJnFDCS_xAZhOyIZzer-71" target="zHJnFDCS_xAZhOyIZzer-73">
          <mxGeometry relative="1" as="geometry" />
        </mxCell>
        <mxCell id="zHJnFDCS_xAZhOyIZzer-71" value="按模版填写数据" style="whiteSpace=wrap;html=1;rounded=0;" vertex="1" parent="WIyWlLk6GJQsqaUBKTNV-1">
          <mxGeometry x="560" y="1020" width="120" height="60" as="geometry" />
        </mxCell>
        <mxCell id="zHJnFDCS_xAZhOyIZzer-76" value="" style="edgeStyle=orthogonalEdgeStyle;rounded=0;orthogonalLoop=1;jettySize=auto;html=1;" edge="1" parent="WIyWlLk6GJQsqaUBKTNV-1" source="zHJnFDCS_xAZhOyIZzer-73" target="zHJnFDCS_xAZhOyIZzer-75">
          <mxGeometry relative="1" as="geometry" />
        </mxCell>
        <mxCell id="zHJnFDCS_xAZhOyIZzer-73" value="获取token&lt;br&gt;放入redis缓存" style="whiteSpace=wrap;html=1;rounded=0;" vertex="1" parent="WIyWlLk6GJQsqaUBKTNV-1">
          <mxGeometry x="760" y="1020" width="120" height="60" as="geometry" />
        </mxCell>
        <mxCell id="zHJnFDCS_xAZhOyIZzer-78" value="" style="edgeStyle=orthogonalEdgeStyle;rounded=0;orthogonalLoop=1;jettySize=auto;html=1;" edge="1" parent="WIyWlLk6GJQsqaUBKTNV-1" source="zHJnFDCS_xAZhOyIZzer-75" target="zHJnFDCS_xAZhOyIZzer-77">
          <mxGeometry relative="1" as="geometry" />
        </mxCell>
        <mxCell id="zHJnFDCS_xAZhOyIZzer-75" value="调用钉钉机器人修改接口" style="whiteSpace=wrap;html=1;rounded=0;" vertex="1" parent="WIyWlLk6GJQsqaUBKTNV-1">
          <mxGeometry x="960" y="1020" width="120" height="60" as="geometry" />
        </mxCell>
        <mxCell id="zHJnFDCS_xAZhOyIZzer-83" value="" style="edgeStyle=orthogonalEdgeStyle;rounded=0;orthogonalLoop=1;jettySize=auto;html=1;" edge="1" parent="WIyWlLk6GJQsqaUBKTNV-1" source="zHJnFDCS_xAZhOyIZzer-77" target="zHJnFDCS_xAZhOyIZzer-82">
          <mxGeometry relative="1" as="geometry" />
        </mxCell>
        <mxCell id="zHJnFDCS_xAZhOyIZzer-77" value="记录发送信息" style="whiteSpace=wrap;html=1;rounded=0;" vertex="1" parent="WIyWlLk6GJQsqaUBKTNV-1">
          <mxGeometry x="1160" y="1020" width="120" height="60" as="geometry" />
        </mxCell>
        <mxCell id="zHJnFDCS_xAZhOyIZzer-79" value="&lt;p style=&quot;margin: 10px 0px 0px ; padding: 0px ; color: rgb(23 , 43 , 77) ; font-family: , , &amp;#34;segoe ui&amp;#34; , &amp;#34;roboto&amp;#34; , &amp;#34;oxygen&amp;#34; , &amp;#34;ubuntu&amp;#34; , &amp;#34;fira sans&amp;#34; , &amp;#34;droid sans&amp;#34; , &amp;#34;helvetica neue&amp;#34; , sans-serif ; font-size: 14px ; background-color: rgb(255 , 255 , 255)&quot;&gt;调用钉钉接口：&lt;/p&gt;&lt;ol style=&quot;margin: 10px 0px 0px ; color: rgb(23 , 43 , 77) ; font-family: , , &amp;#34;segoe ui&amp;#34; , &amp;#34;roboto&amp;#34; , &amp;#34;oxygen&amp;#34; , &amp;#34;ubuntu&amp;#34; , &amp;#34;fira sans&amp;#34; , &amp;#34;droid sans&amp;#34; , &amp;#34;helvetica neue&amp;#34; , sans-serif ; font-size: 14px ; background-color: rgb(255 , 255 , 255)&quot;&gt;&lt;li&gt;&lt;span style=&quot;color: rgb(0 , 0 , 0)&quot;&gt;获取token值&lt;/span&gt;&lt;ol style=&quot;margin: 0px ; list-style-type: lower-alpha&quot;&gt;&lt;li&gt;&lt;span style=&quot;color: rgb(0 , 0 , 0)&quot;&gt;&amp;nbsp;接口地址（ POST ）：&lt;/span&gt;&lt;a href=&quot;https://api.dingtalk.com/v1.0/oauth2/accessToken&quot; class=&quot;external-link&quot; style=&quot;color: rgb(0 , 82 , 204)&quot;&gt;https://api.dingtalk.com/v1.0/oauth2/accessToken&lt;/a&gt;&lt;/li&gt;&lt;li&gt;&lt;span style=&quot;color: rgb(0 , 0 , 0)&quot;&gt;文档地址：&lt;/span&gt;&lt;a href=&quot;https://developers.dingtalk.com/document/app/obtain-the-access_token-of-an-internal-app&quot; class=&quot;external-link&quot; style=&quot;color: rgb(0 , 82 , 204)&quot;&gt;https://developers.dingtalk.com/document/app/obtain-the-access_token-of-an-internal-app&lt;/a&gt;&lt;/li&gt;&lt;/ol&gt;&lt;/li&gt;&lt;li&gt;&lt;span style=&quot;color: rgb(0 , 0 , 0)&quot;&gt;发送钉钉机器人消息&lt;/span&gt;&lt;br&gt;&lt;ol style=&quot;margin: 0px ; list-style-type: lower-alpha&quot;&gt;&lt;li&gt;&lt;span style=&quot;color: rgb(0 , 0 , 0)&quot;&gt;&lt;span style=&quot;color: rgb(33 , 33 , 33)&quot;&gt;接口地址（ PUT ）：&lt;/span&gt;&lt;span style=&quot;color: rgb(33 , 33 , 33)&quot;&gt;&lt;a href=&quot;https://api.dingtalk.com/v1.0/im/interactiveCards/send&quot; class=&quot;external-link&quot; style=&quot;color: rgb(0 , 82 , 204)&quot;&gt;https://api.dingtalk.com/v1.0/im/interactiveCards/send&lt;/a&gt;&lt;/span&gt;&lt;/span&gt;&lt;/li&gt;&lt;li&gt;&lt;span style=&quot;color: rgb(0 , 0 , 0)&quot;&gt;文档地址：&amp;nbsp;&lt;span style=&quot;color: rgb(33 , 33 , 33)&quot;&gt;&lt;a href=&quot;https://developers.dingtalk.com/document/chatgroup/update-dingtalk-interactive-cards&quot; class=&quot;external-link&quot; style=&quot;color: rgb(0 , 82 , 204)&quot;&gt;https://developers.dingtalk.com/document/chatgroup/update-dingtalk-interactive-cards&lt;/a&gt;&lt;/span&gt;&lt;br&gt;&lt;/span&gt;&lt;/li&gt;&lt;/ol&gt;&lt;/li&gt;&lt;li&gt;&lt;span style=&quot;color: rgb(0 , 0 , 0)&quot;&gt;更改消息&lt;/span&gt;&lt;ol style=&quot;margin: 0px ; list-style-type: lower-alpha&quot;&gt;&lt;li&gt;&lt;span style=&quot;color: rgb(0 , 0 , 0)&quot;&gt;&lt;span style=&quot;color: rgb(33 , 33 , 33)&quot;&gt;接口地址（ PUT ）：&lt;/span&gt;&lt;span style=&quot;color: rgb(33 , 33 , 33)&quot;&gt;&lt;a href=&quot;https://api.dingtalk.com/v1.0/im/interactiveCards&quot; class=&quot;external-link&quot; style=&quot;color: rgb(0 , 82 , 204)&quot;&gt;https://api.dingtalk.com/v1.0/im/interactiveCards&lt;/a&gt;&lt;/span&gt;&lt;/span&gt;&lt;/li&gt;&lt;li&gt;&lt;span style=&quot;color: rgb(0 , 0 , 0)&quot;&gt;文档地址：&lt;a href=&quot;https://developers.dingtalk.com/document/chatgroup/send-interactive-dynamic-cards&quot; class=&quot;external-link&quot; style=&quot;color: rgb(0 , 82 , 204)&quot;&gt;https://developers.dingtalk.com/document/chatgroup/send-interactive-dynamic-cards&lt;/a&gt;&lt;br&gt;&lt;/span&gt;&lt;/li&gt;&lt;/ol&gt;&lt;/li&gt;&lt;/ol&gt;&lt;p style=&quot;margin: 10px 0px 0px ; padding: 0px ; color: rgb(23 , 43 , 77) ; font-family: , , &amp;#34;segoe ui&amp;#34; , &amp;#34;roboto&amp;#34; , &amp;#34;oxygen&amp;#34; , &amp;#34;ubuntu&amp;#34; , &amp;#34;fira sans&amp;#34; , &amp;#34;droid sans&amp;#34; , &amp;#34;helvetica neue&amp;#34; , sans-serif ; font-size: 14px ; background-color: rgb(255 , 255 , 255)&quot;&gt;AppKey、AppSecret 最终由客户提供，根据这两个值，可以获取token；&lt;/p&gt;&lt;p style=&quot;margin: 10px 0px 0px ; padding: 0px ; color: rgb(23 , 43 , 77) ; font-size: 14px ; background-color: rgb(255 , 255 , 255)&quot;&gt;模版ID最终由客户提供，根据模版推送消息；&lt;/p&gt;" style="rounded=0;whiteSpace=wrap;html=1;align=left;" vertex="1" parent="WIyWlLk6GJQsqaUBKTNV-1">
          <mxGeometry x="160" y="1140" width="780" height="290" as="geometry" />
        </mxCell>
        <mxCell id="zHJnFDCS_xAZhOyIZzer-80" value="异常记录监控平台" style="whiteSpace=wrap;html=1;rounded=0;" vertex="1" parent="WIyWlLk6GJQsqaUBKTNV-1">
          <mxGeometry x="1360" y="880" width="120" height="60" as="geometry" />
        </mxCell>
        <mxCell id="zHJnFDCS_xAZhOyIZzer-82" value="&lt;span&gt;异常记录监控平台&lt;/span&gt;" style="whiteSpace=wrap;html=1;rounded=0;" vertex="1" parent="WIyWlLk6GJQsqaUBKTNV-1">
          <mxGeometry x="1360" y="1020" width="120" height="60" as="geometry" />
        </mxCell>
      </root>
    </mxGraphModel>
  </diagram>
</mxfile>
